HIERARCHY
ROOT Hips
{
  OFFSET 13.6774 106.653 -34.4427
  CHANNELS 6 Xposition Yposition Zposition Zrotation Xrotation Yrotation
  JOINT ToSpine
  {
    OFFSET -2.69724 7.43032 -0.144315
    CHANNELS 3 Zrotation Xrotation Yrotation
    JOINT Spine
    {
      OFFSET -0.0310711 10.7595 1.96963
      CHANNELS 3 Zrotation Xrotation Yrotation
      JOINT Spine1
      {
        OFFSET 19.9056 3.91189 0.764692
        CHANNELS 3 Zrotation Xrotation Yrotation
        JOINT Neck
        {
          OFFSET 25.9749 7.03908 -0.130764
          CHANNELS 3 Zrotation Xrotation Yrotation
          JOINT Head
          {
            OFFSET 9.52751 0.295786 -0.907742
            CHANNELS 3 Zrotation Xrotation Yrotation
            End Site
            {
              OFFSET 16.4037 0.713936 2.7358
            }
          }
        }
        JOINT LeftShoulder
        {
          OFFSET 17.7449 4.33886 11.7777
          CHANNELS 3 Zrotation Xrotation Yrotation
          JOINT LeftArm
          {
            OFFSET 0.911315 1.27913 9.80584
            CHANNELS 3 Zrotation Xrotation Yrotation
            JOINT LeftForeArm
            {
              OFFSET 28.6126 1.18197 -3.53199
              CHANNELS 3 Zrotation Xrotation Yrotation
              JOINT LeftHand
              {
                OFFSET 27.5088 0.0218783 0.327423
                CHANNELS 3 Zrotation Xrotation Yrotation
                End Site
                {
                  OFFSET 18.6038 -0.000155887 0.382096
                }
              }
            }
          }
        }
        JOINT RightShoulder
        {
          OFFSET 17.1009 2.89543 -12.2328
          CHANNELS 3 Zrotation Xrotation Yrotation
          JOINT RightArm
          {
            OFFSET 1.4228 0.178766 -10.211
            CHANNELS 3 Zrotation Xrotation Yrotation
            JOINT RightForeArm
            {
              OFFSET 28.733 1.87905 2.64907
              CHANNELS 3 Zrotation Xrotation Yrotation
              JOINT RightHand
              {
                OFFSET 27.4588 0.290562 -0.101845
                CHANNELS 3 Zrotation Xrotation Yrotation
                End Site
                {
                  OFFSET 17.8396 -0.255518 -0.000602873
                }
              }
            }
          }
        }
      }
    }
  }
  JOINT LeftUpLeg
  {
    OFFSET -5.61296 -2.22332 -10.2353
    CHANNELS 3 Zrotation Xrotation Yrotation
    JOINT LeftLeg
    {
      OFFSET 2.56703 -44.7417 -7.93097
      CHANNELS 3 Zrotation Xrotation Yrotation
      JOINT LeftFoot
      {
        OFFSET 3.16933 -46.5642 -3.96578
        CHANNELS 3 Zrotation Xrotation Yrotation
        JOINT LeftToeBase
        {
          OFFSET 0.346054 -6.02161 12.8035
          CHANNELS 3 Zrotation Xrotation Yrotation
          End Site
          {
            OFFSET 0.134235 -1.35082 5.13018
          }
        }
      }
    }
  }
  JOINT RightUpLeg
  {
    OFFSET -5.7928 -1.72406 10.6446
    CHANNELS 3 Zrotation Xrotation Yrotation
    JOINT RightLeg
    {
      OFFSET -2.57161 -44.7178 -7.85259
      CHANNELS 3 Zrotation Xrotation Yrotation
      JOINT RightFoot
      {
        OFFSET -3.10148 -46.5936 -4.03391
        CHANNELS 3 Zrotation Xrotation Yrotation
        JOINT RightToeBase
        {
          OFFSET -0.0828122 -6.13587 12.8035
          CHANNELS 3 Zrotation Xrotation Yrotation
          End Site
          {
            OFFSET -0.131328 -1.35082 5.13018
          }
        }
      }
    }
  }
}
MOTION
Frames: 21
Frame Time: 0.03333333333333333
0.0000 93.1000 0.0000 1.6898 -56.9783 -89.2038 -71.0128 0.1007 88.3046 91.5579 64.0662 -10.1558 2.9221 11.1516 9.1816 -128.7292 20.7760 170.9457 -147.3449 59.8129 -175.9833 -0.0565 -16.8283 -18.2820 -124.0718 38.7397 -101.4125 14.3588 -7.7227 -114.8323 0.0793 0.0042 0.0444 -0.9314 2.9496 24.9728 -72.9027 -42.0095 134.3064 8.7892 5.2021 119.6324 0.2409 -0.0267 0.1991 -63.1135 7.0407 100.1762 -0.9312 27.2878 1.6931 -4.0891 -18.2205 -1.7851 5.1754 -12.8073 8.1937 -12.2962 10.6449 103.7564 3.8555 58.5313 0.8892 -6.8982 -7.4000 1.1149 1.8283 -15.2578 -2.6800 
0.0000 93.1000 0.0000 9.4966 -56.8479 -80.5746 -71.0564 0.3651 88.3277 90.6253 64.3253 -8.4408 3.1773 11.5409 8.0687 -125.7249 20.8772 169.1762 -145.4662 59.9513 -178.0264 0.4028 -17.2974 -18.1329 -118.0485 41.2331 -107.4529 15.5835 -7.7965 -111.9203 0.0543 0.3139 -0.2852 -0.9386 3.6966 23.9658 -76.5211 -42.4321 133.9242 10.0540 5.4086 118.9154 0.4273 -0.4141 0.0454 -61.8910 7.6257 98.8154 -1.3835 26.4048 0.3316 -3.8496 -16.6502 -2.0090 5.6054 -13.8394 10.0908 -14.2952 7.0461 101.4629 3.5227 56.5024 0.2000 -5.8588 -8.0240 1.2973 1.3067 -13.0645 -3.1095 
0.0000 93.1000 0.0000 17.5421 -56.6035 -70.7217 -71.0270 0.3894 88.3377 89.2906 65.2432 -6.6962 3.4972 12.1295 8.0256 -123.8549 21.2666 170.6652 -146.0377 60.9504 -176.8389 0.4047 -17.3269 -18.3289 -113.1950 43.1329 -113.4205 15.1236 -6.2916 -109.9787 -0.0179 0.2694 -0.5456 -0.8955 4.0972 21.3671 -78.7996 -44.6383 133.8209 11.9487 6.5607 117.9060 0.2809 -0.6602 -0.2309 -60.8007 7.8667 98.9226 -1.0210 25.5564 -1.1529 -3.9730 -15.1961 -1.9316 5.4726 -14.0229 11.0788 -16.3911 4.5314 100.5464 2.4426 54.5161 0.1463 -6.1413 -8.1949 1.3824 0.8984 -12.5410 -1.8435 
0.0000 93.1000 0.0000 25.5723 -56.0539 -62.1943 -71.0340 0.6093 88.2875 86.2413 65.8189 -4.0775 3.3333 12.2960 7.5328 -122.4084 21.2422 168.2571 -145.8642 62.0132 -175.7499 0.5187 -17.8040 -17.9102 -107.5157 44.3229 -118.3230 16.0823 -6.1032 -106.3805 -0.1478 0.4752 -0.5901 -0.7162 4.7419 18.4317 -82.9291 -45.9250 131.2247 12.8646 6.7481 117.0242 0.0104 -0.8407 -0.2026 -59.9014 8.2802 99.9909 -1.1398 24.2739 -1.1250 -4.0810 -12.0952 -1.7209 6.1284 -15.5435 13.6940 -18.4040 1.6516 98.5461 1.7772 52.3018 -1.9344 -5.1551 -8.1217 1.3165 1.1105 -11.4453 0.0701 
0.0000 93.1000 0.0000 32.4375 -54.2889 -54.7338 -70.9697 0.5155 88.1486 86.2060 66.3044 -2.4126 3.1106 13.1735 6.7209 -121.1022 21.8299 167.2170 -152.9621 62.7942 -173.0132 0.3170 -17.1048 -17.0088 -100.7732 45.9140 -125.4789 17.3157 -4.7971 -102.9161 -0.0879 0.2930 -0.2915 -0.7007 5.3129 17.0620 -88.7924 -47.1094 127.4869 12.9592 6.6999 115.9158 0.0087 -0.2792 0.1767 -58.6418 8.8667 99.7717 -1.0442 24.2928 -1.1284 -4.2987 -9.4363 -1.4180 6.6970 -16.8406 12.9670 -20.2006 -1.9992 95.1132 1.5249 49.2448 -0.1159 -5.8543 -6.9158 0.7565 1.5457 -10.8326 0.2846 
0.0000 93.1000 0.0000 38.9778 -52.1987 -47.2527 -70.9319 0.1900 88.0909 87.2120 67.1888 -2.5406 2.8639 13.7123 6.2178 -118.2920 21.7056 165.6386 -150.2447 63.6808 -169.0200 0.2446 -16.9428 -16.0893 -96.0839 46.7881 -130.5480 19.0571 -3.6917 -100.0549 -0.0843 0.1592 -0.4782 -1.0811 6.0022 16.6010 -95.0171 -46.6935 121.9793 13.0505 6.0717 115.7512 0.2710 -0.5889 -0.2131 -57.8213 9.6809 100.0823 -0.6323 25.9907 0.8656 -4.2112 -8.8752 -1.0612 5.7865 -14.3629 11.9201 -22.4854 -4.8547 93.1765 2.1483 46.7336 -0.5532 -6.1613 -5.9091 1.0118 1.0834 -10.1497 -1.0779 
0.0000 93.1000 0.0000 43.6919 -49.9038 -41.9535 -71.0877 -0.6269 88.0817 88.3168 67.7784 -1.8983 2.8267 14.2121 6.9238 -116.3159 21.8787 161.5791 -150.6911 64.7902 -169.3527 -0.2762 -16.7646 -15.5550 -91.1533 47.1958 -135.7370 19.4261 -2.8936 -97.8249 -0.4158 -0.3921 -0.3897 -1.6891 6.3922 17.0117 -101.6695 -45.2418 117.0191 13.4763 6.5012 115.0024 0.2960 -0.5085 -0.4947 -57.0417 9.9087 100.3274 -0.8241 26.8961 2.9708 -5.0183 -8.9922 -0.4376 4.6821 -11.1851 8.8619 -25.2489 -7.0976 90.0389 1.2265 43.2010 -1.9168 -6.6427 -3.7870 0.7646 0.1434 -11.8543 0.8627 
0.0000 93.1000 0.0000 47.9973 -47.6075 -35.6457 -71.1231 -0.2322 88.0785 86.0987 68.6423 -0.6548 3.0473 15.0743 7.0840 -114.5402 21.9544 161.9057 -152.6699 66.0468 -168.9521 -0.3231 -16.7007 -15.0989 -86.9629 46.8685 -139.8701 18.1552 -1.7036 -95.1485 -0.1673 -0.2870 0.2355 -1.1608 6.8340 17.3710 -107.0270 -43.0459 112.1609 14.6538 6.9690 113.8983 0.0013 0.1205 0.2498 -56.0888 10.6226 101.0824 -1.0302 25.3975 4.8639 -4.8510 -9.0036 -0.6737 3.4498 -8.9563 4.6622 -28.2858 -8.8943 86.6705 0.8875 39.4697 -2.1698 -6.9938 -1.7248 0.3767 1.2027 -11.6299 2.3128 
0.0000 93.1000 0.0000 51.7456 -45.8839 -31.6399 -71.1839 -0.7815 88.0402 85.2017 69.1603 0.2635 3.2116 15.2192 7.7661 -114.2457 22.2618 159.7839 -155.4161 67.1533 -163.6771 -0.7534 -16.1946 -15.1512 -82.4317 47.0451 -144.7226 18.2609 -2.2723 -92.8128 -0.4207 -0.5610 -0.1982 -1.8278 6.8242 16.4804 -110.8977 -43.3712 107.3327 15.2050 7.5159 113.1139 0.2734 -0.2265 -0.5120 -55.2986 10.8535 100.3127 -0.6345 24.9364 1.6731 -4.5796 -7.3379 -0.1880 4.1704 -11.5406 6.2791 -31.1653 -11.0638 84.0279 0.9323 36.0632 -4.0872 -6.2921 -0.6884 0.1850 -0.2389 -8.8798 3.4884 
0.0000 93.1000 0.0000 54.6838 -44.1938 -27.7731 -71.1650 0.0942 88.1051 84.1953 69.3911 0.8084 3.6424 15.1488 8.3643 -113.2168 21.9000 157.9446 -159.3847 67.6962 -164.6717 -0.1286 -16.0213 -14.9811 -81.3643 46.1355 -146.9003 17.9964 -1.1063 -92.0981 0.1091 0.0252 0.0728 -0.8304 7.2209 17.3665 -116.0297 -42.0808 102.6698 14.5702 5.9990 112.0045 0.0479 0.1253 0.1592 -53.8837 11.1196 100.0684 -0.6323 26.1557 -0.7784 -4.6163 -7.1021 -0.8971 3.9237 -11.9370 5.8843 -33.1292 -12.9463 81.3615 -0.4432 35.1376 -4.0200 -7.0247 1.0016 0.1015 0.2243 -9.0780 2.3882 
0.0000 93.1000 0.0000 57.7667 -42.8761 -24.7676 -71.1296 -0.0159 88.1113 83.2070 69.5937 1.3835 4.0832 16.1043 8.0270 -112.2903 21.8608 156.9871 -161.9735 67.9912 -160.7288 -0.2922 -16.1921 -15.1277 -78.2107 45.9050 -147.7112 18.2358 -1.0888 -90.9804 0.0025 0.0717 0.0352 -0.9340 7.4124 17.1044 -119.1706 -41.3216 97.7928 15.3365 6.0030 110.7315 0.0173 -0.2141 -0.1706 -53.6771 9.8847 99.1715 -0.6592 26.0298 -2.9764 -4.0095 -7.7642 -1.0115 4.3480 -12.0413 4.8570 -35.1750 -15.0267 79.5451 0.1859 32.6843 -4.0415 -6.1159 1.9935 -0.0332 0.2528 -6.9012 -2.5293 
0.0000 93.1000 0.0000 59.9478 -41.2293 -22.8261 -71.0523 0.2358 88.1600 81.2622 70.2720 1.7713 4.7657 16.6520 7.7797 -113.2248 22.0576 156.0831 -161.0315 68.7903 -159.9862 0.2876 -15.9604 -15.1409 -76.0323 45.0629 -149.7301 18.1220 -0.8059 -91.1845 -0.1900 0.3312 -0.3896 -0.4146 7.1967 17.3015 -122.9266 -41.5476 93.6859 15.7601 6.0585 109.8361 0.2086 -0.7320 -0.5269 -53.1450 8.9295 98.0844 -1.2361 27.5741 -3.6693 -3.1011 -9.0231 -1.5595 4.0037 -10.0880 3.9566 -36.3256 -16.1334 77.2631 0.6285 32.6151 -4.1838 -4.6646 0.9953 0.2191 0.7036 -4.7331 -4.5590 
0.0000 93.1000 0.0000 61.9056 -40.8181 -21.1230 -71.0868 0.0104 88.0485 81.3112 71.1717 0.9919 5.0698 17.1433 7.1149 -113.3448 21.9824 155.5847 -165.7366 68.7080 -157.5573 -0.1160 -16.2778 -15.2035 -74.3443 44.5697 -150.5046 18.7444 -0.8125 -92.0485 -0.2550 -0.0297 -0.2815 -0.7372 7.0482 18.4794 -126.3276 -40.5338 89.7053 16.5575 6.2250 109.9620 0.2336 -0.2885 -0.3334 -52.8466 8.5849 97.9055 -2.7631 30.3649 -4.3351 -2.0231 -10.0556 -1.6320 3.3774 -9.8742 4.7654 -38.1106 -16.8265 75.7255 0.7764 32.7957 -2.6384 -4.7784 -0.1216 0.0718 0.8231 -8.4214 -4.5018 
0.0000 93.1000 0.0000 63.9524 -40.1061 -19.4957 -71.2896 -0.5237 87.8742 82.2357 71.6041 0.0534 4.7387 17.9006 7.0214 -114.4479 22.1086 157.0276 -167.0633 68.0023 -156.5823 -0.5690 -15.9266 -15.1438 -72.9399 44.2495 -150.6044 18.5742 -1.2344 -93.1939 -0.1039 -0.6956 0.1295 -1.2913 7.0240 21.2915 -127.8704 -38.1446 87.4807 16.7199 6.1225 109.8257 -0.2180 0.2889 0.0251 -51.0417 9.0609 97.0274 -2.5921 33.2343 -6.2102 -2.1490 -10.9124 -1.2424 3.1219 -10.5487 6.9625 -39.2024 -15.7969 76.2939 1.5593 32.7987 1.9101 -3.3402 0.0759 -0.2276 1.3560 -11.6795 -5.2192 
0.0000 93.1000 0.0000 64.7789 -39.1451 -17.2713 -71.2943 -0.4879 87.9242 84.3012 71.4901 -0.9009 4.8678 17.8981 6.1168 -114.2891 22.6842 156.2007 -170.3736 67.7961 -154.9296 -0.7442 -15.9189 -15.9807 -70.8896 44.1486 -150.4855 17.9553 -1.9697 -94.3713 -0.0637 -0.7637 0.6575 -1.2376 6.8587 23.2619 -129.1491 -36.4757 85.3763 16.3044 6.0832 109.8513 -0.1759 0.9330 0.5584 -49.9968 10.0647 95.9251 -2.9738 36.3226 -7.5646 -2.4471 -12.8077 -1.5656 2.8675 -9.5943 8.3046 -40.1401 -14.2335 77.3646 2.0880 32.8709 1.6886 -2.6351 -0.8804 -0.2426 1.1361 -11.7237 -3.3492 
0.0000 93.1000 0.0000 65.9117 -37.8075 -15.2410 -71.2337 -0.3565 88.0330 82.3084 72.0645 0.0419 5.1332 18.6714 5.6749 -114.2298 22.9957 156.9929 -172.1783 67.9905 -152.0468 -0.3901 -15.7633 -16.0443 -69.8575 44.1337 -149.8132 18.7806 -1.9159 -94.6496 -0.2057 -0.3265 0.3481 -1.1390 6.6294 24.4892 -131.0399 -34.9075 82.9196 15.8379 6.1073 110.0624 -0.1181 0.6604 0.2814 -49.1234 9.9419 95.1329 -2.9997 39.2038 -9.3702 -2.2234 -14.1114 -1.9397 2.7182 -9.9406 9.8989 -41.3207 -15.0817 77.1751 0.9794 32.9407 -0.1760 -2.2465 -1.0516 -0.1531 0.2450 -8.3870 0.1297 
0.0000 93.1000 0.0000 67.7514 -36.8080 -14.2742 -71.2945 -0.2653 88.0530 81.3696 72.0732 0.8840 5.5812 18.9654 5.2718 -114.2239 23.1045 156.7870 -176.1451 67.8299 -150.4028 -0.2447 -15.5884 -15.8812 -68.6900 44.2854 -150.7350 19.0192 -2.4010 -95.4089 -0.1408 -0.1700 0.2802 -1.0364 6.6030 26.0993 -131.6650 -32.7712 82.2034 15.2353 5.9779 109.7840 -0.0832 0.4641 0.4088 -48.0370 9.2241 94.0639 -3.8372 41.1012 -11.1497 -1.9141 -15.0681 -2.0632 2.5489 -9.8269 11.4096 -41.9948 -16.0569 76.1093 2.1202 33.6990 0.9505 -2.4737 -0.9315 -0.1642 0.4389 -7.7380 -0.0250 
0.0000 93.1000 0.0000 68.6432 -35.8078 -13.0585 -71.2358 -0.4084 88.0275 81.2618 71.8619 1.2834 5.2119 19.0507 4.7382 -114.3279 22.9268 156.2807 -177.1534 67.7166 -150.6797 -0.7668 -15.1441 -16.1356 -67.8589 44.1016 -150.6258 18.9958 -3.1308 -95.6428 0.1996 -0.5248 0.6420 -1.0030 6.2724 27.5792 -130.9785 -31.0482 81.6824 14.3845 5.2758 109.7716 -0.4710 1.3122 0.7790 -47.1821 10.0123 94.0956 -4.3510 43.0437 -12.2454 -1.5362 -16.0968 -1.8301 2.4031 -10.3094 12.7218 -42.1498 -17.1503 74.5808 1.5398 34.3998 -0.3732 -2.0513 -0.9168 -0.4662 0.2342 -6.9179 2.0927 
0.0000 93.1000 0.0000 68.8228 -34.8879 -12.1743 -71.3370 -0.2230 88.1250 81.2147 71.3690 1.0735 5.7267 18.9878 5.0162 -114.4060 23.3009 157.9291 -181.0819 67.9463 -146.3271 -0.6662 -14.9368 -16.9647 -67.6145 44.2245 -148.4713 18.1028 -3.1443 -97.2013 0.1780 -0.4058 0.4889 -1.0864 6.3473 28.1407 -130.9129 -30.0898 81.5921 14.1637 5.0925 109.7263 -0.2340 0.8852 0.4201 -46.2589 10.0141 93.7363 -4.1319 44.1863 -12.9429 -1.5405 -16.1144 -1.8177 2.8928 -10.2293 12.1124 -42.2508 -16.9579 74.3419 1.3266 34.6342 -0.2036 -1.6495 -0.7164 -0.3754 0.4301 -8.1086 1.7850 
0.0000 93.1000 0.0000 69.7399 -34.7654 -10.3190 -71.2681 -0.2844 88.1011 80.3795 71.3772 1.8742 5.8197 19.0547 4.6791 -114.4547 23.3039 157.7439 -178.3644 68.0087 -146.7421 -0.7959 -14.9255 -17.0157 -67.7673 44.3060 -148.4732 18.0005 -2.9945 -97.3926 0.2128 -0.5036 0.6961 -1.0493 6.4911 28.2681 -130.7506 -29.7257 80.7705 14.9055 5.1686 109.6259 -0.3945 1.1361 0.6209 -46.0463 11.1577 92.8425 -4.1363 45.9619 -13.3399 -1.4422 -15.8818 -1.6635 2.7480 -9.7899 12.9931 -43.1086 -16.8417 73.6209 1.4337 34.6549 -0.9100 -1.8814 -0.9911 -0.4519 0.6049 -7.7409 2.0363 
0.0000 93.1000 0.0000 70.5923 -34.8428 -10.3194 -71.2754 -0.6078 88.0675 80.4218 72.0830 2.0950 5.6409 19.2517 4.6555 -114.4459 22.8678 158.5479 -178.5295 68.1735 -147.8477 -1.0193 -15.0736 -16.9257 -67.8659 44.0389 -148.6238 18.0928 -3.3597 -98.2222 0.2417 -0.7925 0.8266 -1.2107 6.1458 28.2819 -130.8833 -29.3212 81.6230 14.5909 5.0606 108.8678 -0.4756 1.4226 0.8991 -45.9370 11.1686 92.0755 -4.2932 47.0301 -12.7399 -1.3119 -17.0961 -1.2786 2.7983 -9.7799 12.5862 -42.7650 -16.1281 74.5469 1.4369 35.7082 -1.9262 -2.1499 -1.6472 -0.5883 0.3954 -7.2000 3.0455 
